<svg xmlns="http://www.w3.org/2000/svg" viewBox="0 0 800 600"><rect width="800" height="600" fill="#e6efe7"/><g fill="none" stroke="#183329" stroke-width="3"><path d="M126 402h548M170 402V238h108v164M522 402V186h108v216"/><rect x="320" y="250" width="160" height="152" rx="8"/><path d="M356 250v-72h88v72M400 178v-55M381 123h38M223 238v-61h353M281 177l21-21m-21 21 21 21"/></g><g fill="#9fe3c2" stroke="#183329" stroke-width="3"><circle cx="400" cy="326" r="49"/><circle cx="224" cy="317" r="25"/><circle cx="576" cy="278" r="25"/></g><g fill="#ff714b"><circle cx="382" cy="310" r="7"/><circle cx="419" cy="336" r="9"/><circle cx="408" cy="298" r="5"/></g><text x="60" y="75" fill="#183329" font-family="monospace" font-size="21">MODEL → DESIGN → BUILD → TEST</text><text x="60" y="530" fill="#627169" font-family="monospace" font-size="16">AUTOMATED CLOSED LOOP / 02</text></svg>
